<svg id="Слой_1" enable-background="new 0 0 512 512" height="512" viewBox="0 0 512 512" width="512" xmlns="http://www.w3.org/2000/svg"><g fill="rgb(0,0,0)"><path fill="#998f8f" d="m472.216 316.719-58.261-34.963c-21.505-12.912-48.955-9.539-66.7 8.213l-39.156 39.023c-51.622-30.57-94.991-74.026-125.081-125.221l39.023-39.016c17.758-17.752 21.118-45.182 8.213-66.7l-34.97-58.268c-13.065-21.785-35.023-36.05-60.221-39.156-25.224-3.113-49.968 5.419-67.94 23.371l-43.011 43.008c-16.612 16.618-25.344 39.016-23.971 61.434 12.612 205.98 177.436 370.811 383.403 383.41 1.546.093 3.08.147 4.613.147 20.865-.007 41.356-8.646 56.848-24.124l42.982-42.996c17.971-17.958 26.491-42.716 23.384-67.927-3.092-25.212-17.371-47.17-39.155-60.235zm-22.838 89.545-42.982 42.996c-5.493 5.479-12.825 8.359-19.505 8.092-178.49-10.919-321.316-153.751-332.248-332.248-.4-6.726 2.613-14.012 8.092-19.485l42.996-43.003c5.186-5.173 12.052-7.999 19.251-7.999 1.12 0 2.266.073 3.4.213 8.413 1.033 15.719 5.786 20.078 13.045l34.97 58.268-39.023 39.016c-17.638 17.638-21.265 44.709-8.812 65.827 35.277 59.868 85.565 110.149 145.413 145.426h.013c21.118 12.439 48.182 8.832 65.82-8.819l39.023-39.016 58.261 34.963c7.253 4.36 12.026 11.679 13.052 20.085 1.027 8.4-1.8 16.653-7.799 22.639z"/><path fill="#998f8f" d="m327.016 21.168c-15.065 0-27.304 12.225-27.304 27.304v136.513c0 15.079 12.239 27.304 27.304 27.304h136.52c15.079 0 27.304-12.225 27.304-27.304s-12.225-27.304-27.304-27.304h-70.606l89.911-89.911c10.666-10.659 10.666-27.951 0-38.61-10.652-10.666-27.957-10.666-38.61 0l-89.911 89.898v-70.587c0-15.078-12.212-27.303-27.304-27.303z"/></g></svg>