<svg id="Layer_1" enable-background="new 0 0 512 512" viewBox="0 0 512 512" xmlns="http://www.w3.org/2000/svg"><g id="Layer_2_00000112597902861627898090000015888705308580022670_"><g id="Layer_2_copy_11"><g id="_88"><g id="_88-2"><path fill="white" d="m488.1 372.9-116.9-116.9 116.9-116.9c31.8-31.8 31.8-83.4 0-115.2-31.8-31.9-83.4-31.9-115.2 0l-116.9 116.9-116.9-116.9c-31.8-31.9-83.4-31.9-115.2 0-31.9 31.8-31.9 83.4 0 115.2l116.9 116.9-116.9 116.9c-31.9 31.8-31.9 83.4 0 115.2 31.8 31.8 83.4 31.8 115.2 0l116.9-116.9 116.9 116.9c31.8 31.8 83.4 31.8 115.2 0 31.9-31.8 32-83.3.2-115.1 0 0 0-.1-.2-.1z"/></g></g></g></g></svg>