<svg id="aw" height="512" viewBox="0 0 48 48" width="512" xmlns="http://www.w3.org/2000/svg"><path fill="#998f8f" d="m19.23 27.15-13.06 11.97c.83.57 1.81.88 2.83.88h30c1.02 0 2.01-.31 2.83-.88l-13.06-11.97c-.21.15-.4.3-.58.43-1.2.92-2.68 1.42-4.2 1.42s-2.99-.5-4.2-1.42c-.18-.13-.37-.28-.58-.43zm-15.23-10.13v17.98c0 .96.27 1.88.78 2.68l12.76-11.7c-4.12-2.78-10.87-6.92-13.54-8.96zm40 0c-2.67 2.04-9.42 6.17-13.54 8.96l12.76 11.7c.5-.8.78-1.72.78-2.68zm-28 18.98h16c.55 0 1-.45 1-1s-.45-1-1-1h-16c-.55 0-1 .45-1 1s.45 1 1 1zm-12-23c0 .95.44 1.84 1.2 2.42 3.24 2.48 12.58 8.09 15.82 10.57.85.65 1.9 1.01 2.98 1.01s2.13-.35 2.98-1.01c3.24-2.48 12.58-8.09 15.82-10.57.75-.58 1.2-1.47 1.2-2.42 0-1.33-.53-2.6-1.46-3.54-.94-.94-2.21-1.46-3.54-1.46h-30c-1.33 0-2.6.53-3.54 1.46-.94.94-1.46 2.21-1.46 3.54zm15 8.5c0 .66.26 1.3.73 1.77s1.1.73 1.77.73h5c.66 0 1.3-.26 1.77-.73s.73-1.1.73-1.77-.26-1.3-.73-1.77-1.1-.73-1.77-.73h-5c-.66 0-1.3.26-1.77.73s-.73 1.1-.73 1.77zm2 0c0-.13.05-.26.15-.35.09-.09.22-.15.35-.15h5c.13 0 .26.05.35.15.09.09.15.22.15.35s-.05.26-.15.35c-.09.09-.22.15-.35.15h-5c-.13 0-.26-.05-.35-.15-.09-.09-.15-.22-.15-.35z" fill-rule="evenodd"/></svg>