<svg viewBox="0 0 512 512" xmlns="http://www.w3.org/2000/svg" xmlns:xlink="http://www.w3.org/1999/xlink"><linearGradient id="linear-gradient" gradientUnits="userSpaceOnUse" x1="131.57" x2="419.72" y1="166.18" y2="454.32"><stop offset="0" stop-color="#d30f0f"/><stop offset="1" stop-color="#d30f0f" stop-opacity="0"/></linearGradient><g id="Layer_2" data-name="Layer 2"><g id="Layer_2_copy_12" data-name="Layer 2 copy 12"><g id="_16" data-name="16"><g id="background"><circle cx="256" cy="256" fill="#ff4c4c" r="256"/></g><path d="m494.43 349.38c-32.77 83.62-108.26 145.8-199.61 159.69l-110.77-110.77v-284.6l217 142.3z" fill="url(#linear-gradient)"/><path d="m184.05 403.8a5.5 5.5 0 0 1 -5.5-5.5v-284.6a5.5 5.5 0 0 1 8.52-4.6l72.7 47.68 144.3 94.62a5.51 5.51 0 0 1 0 9.2l-145.07 95.12-71.93 47.18a5.52 5.52 0 0 1 -3.02.9zm5.5-279.92v264.24l201.45-132.12-138-90.5z" fill="#fff"/></g></g></g></svg>