<svg clip-rule="evenodd" fill-rule="evenodd" stroke-linejoin="round" stroke-miterlimit="2" viewBox="0 0 20 13" xmlns="http://www.w3.org/2000/svg" xmlns:serif="http://www.serif.com/"><g transform="translate(-298.346 -84)"><g transform="translate(-50 -50)"><path d="m354.346 140c0-2.208 1.793-4 4-4 2.208 0 4 1.792 4 4s-1.792 4-4 4c-2.207 0-4-1.792-4-4zm-6 0 2.93-3.002c3.902-3.998 10.238-3.998 14.14 0l2.93 3.002-2.93 3.002c-3.902 3.998-10.238 3.998-14.14 0zm10.586-1.897c-.18-.072-.379-.103-.586-.103-1.104 0-2 .896-2 2s.896 2 2 2 2-.896 2-2c0-.206-.031-.405-.103-.585-.148.347-.495.585-.897.585-.552 0-1-.448-1-1 0-.402.238-.749.586-.897z"/></g></g></svg>