<svg id="Capa_1" enable-background="new 0 0 604.297 604.297" height="512" viewBox="0 0 604.297 604.297" width="512" xmlns="http://www.w3.org/2000/svg"><g><path clip-rule="evenodd" d="m477.434 596.877c28.69 17.931 57.804 1.835 57.804-32.016v-493.154c0-39.582-32.152-71.707-71.777-71.707h-322.625c-39.672 0-71.777 32.084-71.777 71.707v493.153c0 33.843 29.095 49.959 57.804 32.016l175.286-109.554zm19.006-30.41-184.789-115.493c-5.814-3.634-13.192-3.634-19.006 0l-184.788 115.493c-1.03.644-1.944 1.116-2.721 1.441-.135-.825-.217-1.843-.217-3.048v-493.153c0-19.812 16.045-35.847 35.917-35.847h322.625c19.827 0 35.917 16.076 35.917 35.847v493.153c0 1.205-.083 2.222-.217 3.047-.777-.324-1.691-.796-2.721-1.44zm-200.525-391.863c-26.266-26.266-68.796-26.317-95.044-.069l-2.101 2.101c-26.225 26.225-26.172 68.804.069 95.044l90.632 90.632c7.002 7.002 18.355 7.002 25.357 0l90.632-90.632c26.24-26.24 26.293-68.82.069-95.044l-2.101-2.101c-26.249-26.248-68.779-26.197-95.044.069l-6.233 6.233zm-71.72 71.72c-12.25-12.25-12.275-32.124-.069-44.331l2.101-2.101c12.231-12.231 32.056-12.207 44.331.069l18.912 18.912c7.002 7.002 18.355 7.002 25.357 0l18.912-18.912c12.275-12.275 32.1-12.299 44.331-.069l2.101 2.101c12.206 12.206 12.182 32.081-.069 44.331l-77.953 77.953z" fill-rule="evenodd"/></g></svg>